<?xml version="1.0" encoding="utf-8"?>
<!-- Generator: Adobe Illustrator 28.2.0, SVG Export Plug-In . SVG Version: 6.00 Build 0)  -->
<svg version="1.1" id="Ñëîé_1" xmlns="http://www.w3.org/2000/svg" xmlns:xlink="http://www.w3.org/1999/xlink" x="0px" y="0px"
	 viewBox="0 0 2000 2000" style="enable-background:new 0 0 2000 2000;" xml:space="preserve">
<style type="text/css">
	.st0{opacity:0.5;fill:#FFFFFF;}
	.st1{fill:#FFFFFF;}
</style>
<path class="st0" d="M349.59,1488.25c0,0-214.98-19.23-300.62,143.32c0,0,80.4,27.97,120.6,19.23c0,0-164.3,195.76-141.57,344.32
	c0,0,220.23-13.98,307.62-129.34c0,0,8.74,54.18-8.74,103.12c0,0,187.02-71.66,209.74-293.63L349.59,1488.25z"/>
<path class="st1" d="M1835.57,8.02c-100.96,2.01-199.81,13.5-295.67,33.67c-472.09,99.12-871.02,408.11-1087.87,831.26
	c0-0.01,0.01-0.01,0.01-0.02c-102.82-5.34-320.78,29.86-444.18,389.76l310.15-22.47c-8.95,38.85-16.54,78.28-22.63,118.25
	l343.18,343.18c39.97-6.09,79.38-13.71,118.23-22.66l-22.48,310.16c359.81-123.36,395.09-341.24,389.77-444.1
	c148.46-76.08,282.87-174.57,399.08-290.78c215.03-215.03,367.77-490.67,432.12-797.19c20.17-95.86,31.66-194.71,33.67-295.67
	l3.19-156.52L1835.57,8.02z M1439.57,977.49c-115.99,115.99-304.06,115.99-420.05,0c-115.99-115.99-115.99-304.06,0-420.05
	c115.99-115.99,304.06-115.99,420.05,0C1555.56,673.43,1555.56,861.49,1439.57,977.49z"/>
</svg>
