<?xml version="1.0" encoding="utf-8"?>
<!-- Generator: Adobe Illustrator 28.2.0, SVG Export Plug-In . SVG Version: 6.00 Build 0)  -->
<svg version="1.1" id="Layer_1" xmlns="http://www.w3.org/2000/svg" xmlns:xlink="http://www.w3.org/1999/xlink" x="0px" y="0px"
	 viewBox="0 0 100 100" style="enable-background:new 0 0 100 100;" xml:space="preserve">
<style type="text/css">
	.st0{opacity:0.5;fill:#FFFFFF;}
	.st1{opacity:0.25;fill:#FFFFFF;}
	.st2{fill:#FFFFFF;}
	.st3{opacity:0.75;fill:#FFFFFF;}
</style>
<polygon class="st0" points="36.52,66.26 40.56,66.26 40.56,41.85 47.88,41.85 47.88,12.04 40.56,12.04 40.56,1 36.52,1 
	36.52,12.04 29.2,12.04 29.2,41.85 36.52,41.85 "/>
<polygon class="st1" points="88.73,23.6 88.73,5.03 84.7,5.03 84.7,23.6 77.38,23.6 77.38,44.93 84.7,44.93 84.7,70.29 88.73,70.29 
	88.73,44.93 96.05,44.93 96.05,23.6 "/>
<polygon class="st2" points="11.27,66.26 15.3,66.26 15.3,53.95 22.62,53.95 22.62,30.71 15.3,30.71 15.3,10.34 11.27,10.34 
	11.27,30.71 3.95,30.71 3.95,53.95 11.27,53.95 "/>
<polygon class="st3" points="59.97,81.96 64.01,81.96 64.01,72.84 71.33,72.84 71.33,46.95 64.01,46.95 64.01,27 59.97,27 
	59.97,46.95 52.65,46.95 52.65,72.84 59.97,72.84 "/>
<path class="st1" d="M81.51,75.81c-1.91,1.91-2.55,4.67-1.91,7.22l-10.82,6.68c-0.32-0.85-0.85-1.59-1.49-2.23
	c-2.76-2.76-7.11-2.86-9.97-0.32l-11.99-7.53c1.17-2.76,0.74-6.05-1.49-8.28c-2.86-2.86-7.53-2.86-10.4,0
	c-0.95,0.95-1.59,2.12-1.91,3.4H20.4c-0.85-3.18-3.71-5.52-7.11-5.52c-4.03,0-7.32,3.29-7.32,7.32s3.29,7.32,7.32,7.32
	c3.4,0,6.26-2.33,7.11-5.52h11.04c0.32,1.27,0.95,2.33,1.91,3.4c1.49,1.49,3.29,2.12,5.2,2.12c1.49,0,3.08-0.53,4.35-1.38l12.2,7.64
	c-0.95,2.65-0.32,5.62,1.7,7.75c1.49,1.49,3.29,2.12,5.2,2.12c1.91,0,3.82-0.74,5.2-2.12c1.17-1.17,1.8-2.65,2.02-4.14l12.2-7.53
	l0,0l0,0c1.49,1.49,3.29,2.12,5.2,2.12c1.91,0,3.82-0.74,5.2-2.12c2.86-2.86,2.86-7.53,0-10.4C89.05,72.94,84.38,72.94,81.51,75.81z
	 M13.29,80.16c-2.02,0-3.61-1.59-3.61-3.61c0-2.02,1.59-3.61,3.61-3.61s3.61,1.59,3.61,3.61C17,78.46,15.3,80.16,13.29,80.16z
	 M35.99,79.1c-1.38-1.38-1.38-3.71,0-5.09c0.74-0.74,1.59-1.06,2.55-1.06c0.95,0,1.91,0.32,2.55,1.06c1.38,1.38,1.38,3.71,0,5.09
	C39.71,80.48,37.37,80.48,35.99,79.1z M64.54,95.23c-1.38,1.38-3.71,1.38-5.09,0c-1.38-1.38-1.38-3.71,0-5.09l0,0
	c1.38-1.38,3.71-1.38,5.09,0C66.02,91.51,66.02,93.74,64.54,95.23z M89.26,83.55c-1.38,1.38-3.71,1.38-5.09,0l0,0
	c-1.38-1.38-1.38-3.71,0-5.09c1.38-1.38,3.71-1.38,5.09,0C90.64,79.84,90.64,82.17,89.26,83.55z"/>
<path class="st1" d="M61.99,18.72c4.67,0,8.38-3.71,8.38-8.38s-3.71-8.38-8.38-8.38s-8.38,3.71-8.38,8.38
	C53.61,15.01,57.43,18.72,61.99,18.72z M59.44,8.64c0-1.27,0.74-2.12,2.02-2.44V4.93h1.38V6.2c0.85,0.11,1.38,0.53,1.91,1.06
	l-1.06,1.27c-0.42-0.42-0.85-0.64-1.27-0.64c-0.53,0-0.85,0.11-0.85,0.64c0,0.95,3.29,1.06,3.29,3.4c0,1.27-0.64,2.23-2.02,2.55
	v1.38h-1.38v-1.27c-0.74-0.11-1.59-0.42-2.23-0.95l0.95-1.49c0.64,0.53,1.27,0.74,1.8,0.74c0.64,0,0.85-0.21,0.85-0.74
	C62.73,11.08,59.44,10.87,59.44,8.64z"/>
</svg>
