<?xml version="1.0" encoding="utf-8"?>
<!-- Generator: Adobe Illustrator 28.2.0, SVG Export Plug-In . SVG Version: 6.00 Build 0)  -->
<svg version="1.1" id="Layer_1" xmlns="http://www.w3.org/2000/svg" xmlns:xlink="http://www.w3.org/1999/xlink" x="0px" y="0px"
	 viewBox="0 0 2200 2200" style="enable-background:new 0 0 2200 2200;" xml:space="preserve">
<style type="text/css">
	.st0{fill:#FFFFFF;}
	.st1{opacity:0.5;fill:#FFFFFF;}
	.st2{opacity:0.25;fill:#FFFFFF;}
</style>
<path class="st0" d="M1590.7,1329.81v138.78c0,85.36,69.2,154.55,154.55,154.55h331.99c24.02,0,43.49,19.47,43.49,43.49v363.31
	c0,93.92-76.14,170.06-170.06,170.06H173.9c-93.92,0-170.06-76.14-170.06-170.06V768.46c0-93.92,76.14-170.06,170.06-170.06h1776.78
	c93.92,0,170.06,76.14,170.06,170.06v363.31c0,24.02-19.47,43.49-43.49,43.49h-331.99C1659.9,1175.26,1590.7,1244.46,1590.7,1329.81
	z"/>
<path class="st0" d="M2127.72,1217.89h-381.88c-62.14,0-112.52,50.38-112.52,112.52V1468c0,62.14,50.38,112.52,112.52,112.52h381.88
	c37.8,0,68.44-30.64,68.44-68.44v-225.75C2196.16,1248.53,2165.52,1217.89,2127.72,1217.89z M1803.14,1467.67
	c-37.83,0-68.48-30.65-68.48-68.46c0-37.81,30.65-68.48,68.48-68.48c37.81,0,68.46,30.67,68.46,68.48
	S1840.95,1467.67,1803.14,1467.67z"/>
<path class="st1" d="M1722.51,254.62L471.04,559.97h1362.38V341.72C1833.42,283.6,1778.97,240.84,1722.51,254.62z"/>
<path class="st2" d="M1540.85,255.06L291.16,559.97L1366.77,10.15c51.57-26.8,114.62,1.8,128.42,58.26L1540.85,255.06z"/>
</svg>
